<mxfile host="app.diagrams.net" modified="2023-08-09T22:00:36.040Z" agent="Mozilla/5.0 (Windows NT 10.0; Win64; x64) AppleWebKit/537.36 (KHTML, like Gecko) Chrome/114.0.0.0 Safari/537.36 OPR/100.0.0.0 (Edition std-1)" etag="sv1OOHczaXxXG3kvrO-f" version="21.6.2" type="device">
  <diagram name="PÃ¡gina-1" id="vbVB1LwgQKN09a00N9Nq">
    <mxGraphModel dx="1222" dy="681" grid="1" gridSize="10" guides="1" tooltips="1" connect="1" arrows="1" fold="1" page="1" pageScale="1" pageWidth="1169" pageHeight="827" math="0" shadow="0">
      <root>
        <mxCell id="0" />
        <mxCell id="1" parent="0" />
        <mxCell id="sNebUx4WJ-zc_y8YMBwP-1" value="Player&lt;br&gt;" style="swimlane;fontStyle=0;childLayout=stackLayout;horizontal=1;startSize=30;horizontalStack=0;resizeParent=1;resizeParentMax=0;resizeLast=0;collapsible=1;marginBottom=0;whiteSpace=wrap;html=1;fillColor=#fff2cc;strokeColor=#d6b656;" vertex="1" parent="1">
          <mxGeometry x="160" y="120" width="140" height="220" as="geometry" />
        </mxCell>
        <mxCell id="sNebUx4WJ-zc_y8YMBwP-4" value="String name&lt;br&gt;&lt;br&gt;Int id&lt;br&gt;&lt;br&gt;Int: age&lt;br&gt;&lt;br&gt;String:&amp;nbsp; &amp;nbsp;[ actual, standard ]&lt;br&gt;&lt;br&gt;String: college_univ&lt;br&gt;&lt;br&gt;String: team" style="text;strokeColor=#6c8ebf;fillColor=#dae8fc;align=left;verticalAlign=middle;spacingLeft=4;spacingRight=4;overflow=hidden;points=[[0,0.5],[1,0.5]];portConstraint=eastwest;rotatable=0;whiteSpace=wrap;html=1;" vertex="1" parent="sNebUx4WJ-zc_y8YMBwP-1">
          <mxGeometry y="30" width="140" height="190" as="geometry" />
        </mxCell>
      </root>
    </mxGraphModel>
  </diagram>
</mxfile>
